<svg xmlns="http://www.w3.org/2000/svg" width="172.16" height="42.763" viewBox="0 0 172.16 42.763"><line x1="172.16" transform="translate(0 0)" fill="#212121"/><rect width="2.915" height="12.451" transform="translate(45.518 13.827)" fill="#fd9d34"/><ellipse cx="12.266" cy="12.266" rx="12.266" ry="12.266" transform="translate(16.277 11.655)" fill="#ffbf1f"/><path d="M130.44,703.2l-1.807-1.8a.889.889,0,1,0-1.257,1.257l1.506,1.506v8.664a.89.89,0,0,0,1.778,0v-9.1a.994.994,0,0,0-.072-.278A.96.96,0,0,0,130.44,703.2Z" transform="translate(-105.506 -674.675)" fill="#fff"/><path d="M186.78,703.713v9.1a.888.888,0,1,0,1.776,0v-8.664l1.506-1.51a.89.89,0,0,0,0-1.257.9.9,0,0,0-.628-.26.89.89,0,0,0-.629.26q-.9.9-1.8,1.8a1,1,0,0,0-.152.246A.974.974,0,0,0,186.78,703.713Z" transform="translate(-154.98 -674.662)" fill="#fff"/><path d="M149.676,747.025a4.6,4.6,0,0,1-.171,1.243c-.044.154-.1.306-.154.451a4.649,4.649,0,0,1-4.3,2.936h-.9a4.644,4.644,0,0,1-4.3-2.929,3.7,3.7,0,0,1-.155-.458,4.539,4.539,0,0,1-.171-1.165,4.728,4.728,0,0,1,4.748-4.7h.782A4.639,4.639,0,0,1,149.676,747.025Z" transform="translate(-115.789 -708.892)" fill="#9eacb2"/><path d="M163.808,687.77a.89.89,0,0,0-.888.888V701.85a.89.89,0,0,0,1.778,0V688.663A.891.891,0,0,0,163.808,687.77Z" transform="translate(-135.195 -663.592)" fill="#fff"/><rect width="15.238" height="3.387" rx="1.693" transform="translate(20.955 35.99)" fill="#c5ced3"/><rect width="17.496" height="3.5" rx="1.75" transform="translate(19.826 33.281)" fill="#c5ced3"/><path d="M150.337,776.727c-.044.154-.1.306-.154.451h-9.508a3.7,3.7,0,0,1-.155-.458Z" transform="translate(-116.621 -737.351)" fill="#8ea0a5"/><path d="M138.671,761.874H123.51a1.668,1.668,0,0,1,.1-.3,1.556,1.556,0,0,1,.149-.275h14.669a1.762,1.762,0,0,1,.152.282A1.731,1.731,0,0,1,138.671,761.874Z" transform="translate(-102.516 -724.564)" fill="#afbabf"/><path d="M157.274,669a2.234,2.234,0,1,0,2.234,2.234A2.234,2.234,0,0,0,157.274,669Z" transform="translate(-128.661 -648.028)" fill="#fff"/><path d="M82.437,577.747l-20.4-9.151a3.054,3.054,0,0,0-2.272,0l-20.4,9.151c-.617.3-.617.813,0,1.108l10.418,4.673,2.237,1.006a20.051,20.051,0,0,1,8.915-1.879,18.494,18.494,0,0,1,8.6,1.98l2.5-1.122,10.395-4.663C83.057,578.56,83.057,578.048,82.437,577.747Z" transform="translate(-32.359 -564.591)" fill="#1c3748"/><path d="M120.286,636.24c-.294-.84-1.445-1.809-3.226-2.622a22.306,22.306,0,0,0-9.074-1.783,24.17,24.17,0,0,0-9.394,1.684c-1.657.728-2.7,1.6-2.922,2.425.082-1.062.219-2.22.439-3.464.193-1.091.425-2.1.673-3.023.388-2.123,5.045-3.758,11.213-3.758,6.2,0,10.813,1.691,11.213,3.786a27.637,27.637,0,0,1,.7,3.047,28.209,28.209,0,0,1,.379,3.706Z" transform="translate(-79.431 -612.124)" fill="#274c5b"/><rect width="5.194" height="17.757" transform="translate(69.339 4.372)" fill="#ff9d00"/><rect width="5.194" height="17.757" transform="translate(77.474 4.372)" fill="#ff9d00"/><path d="M311.59,704.873V687.11h7.635c4.57,0,7.411,2.412,7.411,6.292v.049c0,3.973-2.934,6.441-7.66,6.441h-2.22v4.975Zm7.286-9.1c1.6,0,2.591-.8,2.591-2.094v-.05c0-1.366-.929-2.118-2.617-2.118h-2.092v4.27Z" transform="translate(-258.473 -663.045)" fill="#1c3748"/><path d="M420.158,704.873l-3.506-5.274H414.8v5.274H409.63V687.11h8.406c2.582,0,4.533.654,5.8,1.942a5.59,5.59,0,0,1,1.59,4.176v.05a5.617,5.617,0,0,1-3.5,5.423l4.222,6.167Zm-2.345-9.394c1.513,0,2.417-.709,2.417-1.894v-.049c0-1.648-1.537-1.9-2.442-1.9H414.8v3.839Z" transform="translate(-339.769 -663.045)" fill="#1c3748"/><path d="M526.923,704.292l-1.269-3.11h-6.49l-1.245,3.11H512.47l7.559-17.882h4.878l7.559,17.882Zm-2.8-7.207-1.691-4.316-1.708,4.316Z" transform="translate(-425.044 -662.465)" fill="#1c3748"/><path d="M636.066,703.579a9.016,9.016,0,0,1-9.153-9.177v-.05a9.083,9.083,0,0,1,9.353-9.223,8.668,8.668,0,0,1,7.527,3.7l.1.135-3.9,3.016-.106-.131a4.466,4.466,0,0,0-3.674-1.976,4.135,4.135,0,0,0-3.983,4.441v.05c0,2.6,1.676,4.482,3.983,4.482a4.612,4.612,0,0,0,3.8-2.05l.1-.123,3.9,2.781-.1.138A8.931,8.931,0,0,1,636.066,703.579Z" transform="translate(-519.94 -661.404)" fill="#1c3748"/><path d="M737.715,158.757V145.572H732.49V141h15.617v4.572h-5.225v13.185Z" transform="translate(-607.727 -116.93)" fill="#1c3748"/><rect width="5.194" height="17.757" transform="translate(142.254 24.07)" fill="#1c3748"/><path d="M886.2,703.579a9.016,9.016,0,0,1-9.153-9.177v-.05a9.082,9.082,0,0,1,9.351-9.223,8.669,8.669,0,0,1,7.529,3.7l.1.135-3.9,3.016-.1-.131a4.466,4.466,0,0,0-3.674-1.976,4.135,4.135,0,0,0-3.985,4.441v.05c0,2.6,1.675,4.482,3.985,4.482a4.612,4.612,0,0,0,3.8-2.05l.1-.123,3.9,2.781-.1.138A8.931,8.931,0,0,1,886.2,703.579Z" transform="translate(-727.349 -661.404)" fill="#1c3748"/><path d="M325.545,32.86h-7.377V30.24h9.105V25.67H313V43.427h5.168v-6.22h7.377Z" transform="translate(-259.883 -21.298)" fill="#ff9d00"/></svg>